<?xml version="1.0" encoding="utf-8"?>
<!-- Generator: Adobe Illustrator 19.1.0, SVG Export Plug-In . SVG Version: 6.00 Build 0)  -->
<svg version="1.1" id="Layer_1" xmlns="http://www.w3.org/2000/svg" xmlns:xlink="http://www.w3.org/1999/xlink" x="0px" y="0px"
	 viewBox="-293 385 24 24" style="enable-background:new -293 385 24 24;" xml:space="preserve">
<style type="text/css">
	.st0{fill:#673AB7;}
	.st1{fill:#FFFFFF;}
	.st2{fill:none;}
</style>
<title></title>
<g id="Layer_2">
	<g id="Layer_1-2">
		<path class="st0" d="M-270.7,394.8l-1-0.8c0.1-0.5,0.2-0.9,0.3-1.2c0.4-1.3,0.6-2.1,0.1-2.8c-0.6-0.8-1.3-0.8-2.7-0.8h-1.2
			c-0.2-0.4-0.3-0.8-0.4-1.2c-0.5-1.3-0.7-2-1.6-2.3c-0.9-0.3-1.5,0.1-2.7,0.9l-1,0.7l-1-0.7c-1-0.8-1.8-1.3-2.7-1
			c-0.9,0.3-1.1,1-1.6,2.3c-0.1,0.3-0.2,0.7-0.4,1.2l-1.3,0.1c-1.4,0-2.2,0-2.7,0.8s-0.3,1.5,0.1,2.9c0.1,0.3,0.2,0.7,0.3,1.2
			l-1,0.8c-1.1,0.8-1.7,1.3-1.7,2.3s0.6,1.4,1.7,2.3l1,0.8c-0.1,0.5-0.2,0.9-0.3,1.2c-0.4,1.3-0.6,2.1-0.1,2.8
			c0.5,0.8,1.3,0.8,2.7,0.8h1.2c0.2,0.4,0.3,0.8,0.4,1.2c0.5,1.3,0.7,2,1.6,2.3c0.9,0.3,1.5-0.1,2.7-0.9l1-0.7l1,0.7
			c0.6,0.5,1.4,0.9,2.2,1c0.2,0,0.4,0,0.5-0.1c0.9-0.3,1.1-1,1.6-2.3c0.1-0.3,0.2-0.7,0.4-1.2h1.2c1.4,0,2.2,0,2.7-0.8
			c0.6-0.8,0.3-1.5-0.1-2.8c-0.1-0.3-0.2-0.7-0.3-1.2l1-0.8c1.1-0.8,1.7-1.2,1.7-2.2S-269.6,395.6-270.7,394.8z"/>
		<path class="st1" d="M-282.6,402.3L-282.6,402.3c-0.3,0-0.5-0.1-0.7-0.3l-3-3.3c-0.4-0.4-0.3-1,0.1-1.4s1-0.3,1.4,0.1l2.2,2.5
			l6.3-6.2c0.4-0.4,1-0.4,1.4,0c0.4,0.4,0.4,1,0,1.4l-7.1,6.9C-282.1,402.2-282.4,402.3-282.6,402.3z"/>
		<rect x="-293" y="385" class="st2" width="24" height="24"/>
	</g>
</g>
</svg>
